<svg width="33" height="33" viewBox="0 0 33 33" fill="none" xmlns="http://www.w3.org/2000/svg">
<g clip-path="url(#clip0)">
<path d="M13.4141 11.5469H18.4141V15.2969H13.4141V11.5469Z" fill="#1B1B1B"/>
<path d="M32.7082 9.97856L30.604 5.24444L30.7084 5.06125L32.0192 2.98481C32.4134 2.36062 31.9648 1.54688 31.2266 1.54688H27.1641C23.5397 1.54688 20.6016 4.485 20.6016 8.10938V10.6094C20.6016 10.8867 20.4804 11.1351 20.2891 11.3068V16.2344C20.2891 16.7521 19.8693 17.1719 19.3516 17.1719H17.1641V23.0147C18.2341 22.8812 19.7262 22.3211 20.7266 21.8594V29.9844C20.7266 30.5021 21.1463 30.9219 21.6641 30.9219H24.3516C24.8693 30.9219 25.2891 30.5021 25.2891 29.9844V29.9011C25.2891 29.0224 24.7926 28.2192 24.0067 27.8263L24.6092 22.4048C26.5818 21.0378 27.7891 18.7559 27.7891 16.34V12.2567L25.8252 11.4513C25.3581 11.2597 25.1035 10.736 25.2728 10.2605C25.4536 9.75275 26.0192 9.50431 26.5121 9.7065L27.7891 10.2303L29.6986 12.1397C30.0284 12.4696 30.5507 12.5068 30.9239 12.2268L32.4139 11.1093C32.7637 10.8471 32.8857 10.378 32.7082 9.97856Z" fill="#1B1B1B"/>
<path d="M15.2891 23.082V17.1719H12.4766C11.9588 17.1719 11.5391 16.7521 11.5391 16.2344V11.5469C8.60506 11.5469 6.22656 13.9254 6.22656 16.8594V21.6381L5.07556 23.9401C5.01044 24.0703 4.97656 24.2138 4.97656 24.3594V29.6719C4.97656 30.3622 5.53619 30.9219 6.22656 30.9219H8.60156C9.11931 30.9219 9.53906 30.5021 9.53906 29.9844V29.9013C9.53906 29.0226 9.0425 28.2192 8.2565 27.8263L8.24069 27.8184L8.79688 25.0378C10.0122 24.4588 10.9081 23.3731 11.2404 22.0443L11.2408 22.0425L11.4141 22.1224C12.6476 22.6918 13.9632 23.0117 15.289 23.0822V23.1094C15.289 23.6271 15.7087 24.0469 16.2265 24.0469C16.7442 24.0469 17.164 23.6271 17.164 23.1094V23.0159C16.7339 23.0691 16.2959 23.0969 15.8515 23.0969C15.6629 23.0969 15.4754 23.0918 15.2891 23.082Z" fill="#1B1B1B"/>
<path d="M6.69845 11.5504C3.9592 11.6283 1.7542 13.8792 1.7542 16.6367V17.4423C1.7542 18.7451 1.40582 20.0094 0.860572 21.1926C0.735072 21.465 0.776509 21.7865 0.968947 22.0184C1.1197 22.2 1.34145 22.3007 1.57032 22.3007C1.64176 22.3007 1.71395 22.2909 1.78482 22.2707C1.79457 22.268 1.80432 22.2651 1.81401 22.2623C3.32395 21.8231 4.35145 20.4237 4.35145 18.8513V16.8589C4.35145 14.7585 5.2572 12.8658 6.69845 11.5504Z" fill="#1B1B1B"/>
</g>
<defs>
<clipPath id="clip0">
<rect width="32" height="32" fill="white" transform="translate(0.789062 0.234375)"/>
</clipPath>
</defs>
</svg>
