<svg width="16" height="17" viewBox="0 0 16 17" fill="none" xmlns="http://www.w3.org/2000/svg">
<g clip-path="url(#clip0)">
<path d="M11 0.779297H5C2.239 0.779297 0 3.0183 0 5.7793V11.7793C0 14.5403 2.239 16.7793 5 16.7793H11C13.761 16.7793 16 14.5403 16 11.7793V5.7793C16 3.0183 13.761 0.779297 11 0.779297ZM14.5 11.7793C14.5 13.7093 12.93 15.2793 11 15.2793H5C3.07 15.2793 1.5 13.7093 1.5 11.7793V5.7793C1.5 3.8493 3.07 2.2793 5 2.2793H11C12.93 2.2793 14.5 3.8493 14.5 5.7793V11.7793Z" fill="#1B1B1B"/>
<path d="M8 4.7793C5.791 4.7793 4 6.5703 4 8.7793C4 10.9883 5.791 12.7793 8 12.7793C10.209 12.7793 12 10.9883 12 8.7793C12 6.5703 10.209 4.7793 8 4.7793ZM8 11.2793C6.622 11.2793 5.5 10.1573 5.5 8.7793C5.5 7.4003 6.622 6.2793 8 6.2793C9.378 6.2793 10.5 7.4003 10.5 8.7793C10.5 10.1573 9.378 11.2793 8 11.2793Z" fill="#1B1B1B"/>
<path d="M12.2986 5.01326C12.593 5.01326 12.8316 4.77463 12.8316 4.48026C12.8316 4.1859 12.593 3.94727 12.2986 3.94727C12.0043 3.94727 11.7656 4.1859 11.7656 4.48026C11.7656 4.77463 12.0043 5.01326 12.2986 5.01326Z" fill="#1B1B1B"/>
</g>
<defs>
<clipPath id="clip0">
<rect width="16" height="16" fill="white" transform="translate(0 0.779297)"/>
</clipPath>
</defs>
</svg>
