<svg width="16" height="16" viewBox="0 0 16 16" fill="none" xmlns="http://www.w3.org/2000/svg">
<g clip-path="url(#clip0)">
<path d="M15.8574 11.5782C15.8144 11.5062 15.5484 10.9282 14.2683 9.7401C12.9282 8.49601 13.1082 8.69802 14.7223 6.54686C15.7054 5.23677 16.0984 4.43671 15.9754 4.09468C15.8584 3.76866 15.1353 3.85466 15.1353 3.85466L12.7312 3.86866C12.7312 3.86866 12.5531 3.84466 12.4201 3.92367C12.2911 4.00167 12.2081 4.18169 12.2081 4.18169C12.2081 4.18169 11.8271 5.19576 11.3191 6.05783C10.248 7.87696 9.81894 7.97297 9.64393 7.85996C9.2369 7.59694 9.33891 6.80188 9.33891 6.23784C9.33891 4.47471 9.60593 3.73965 8.81787 3.54964C8.55585 3.48664 8.36384 3.44463 7.69479 3.43763C6.83672 3.42863 6.10967 3.44063 5.69864 3.64165C5.42462 3.77566 5.21361 4.07468 5.34261 4.09168C5.50163 4.11268 5.86165 4.18869 6.05267 4.44871C6.29969 4.78373 6.29068 5.53779 6.29068 5.53779C6.29068 5.53779 6.43269 7.61294 5.95966 7.87096C5.63464 8.04797 5.1896 7.68695 4.23453 6.03583C3.7455 5.19076 3.37547 4.25569 3.37547 4.25569C3.37547 4.25569 3.30447 4.08168 3.17746 3.98867C3.02344 3.87566 2.80743 3.83966 2.80743 3.83966L0.521262 3.85366C0.521262 3.85366 0.178236 3.86366 0.0522271 4.01267C-0.0597811 4.14568 0.0432264 4.4197 0.0432264 4.4197C0.0432264 4.4197 1.83336 8.60702 3.85951 10.7182C5.71864 12.6533 7.8288 12.5263 7.8288 12.5263H8.78487C8.78487 12.5263 9.07389 12.4943 9.2209 12.3353C9.35691 12.1893 9.35191 11.9153 9.35191 11.9153C9.35191 11.9153 9.33291 10.6322 9.92895 10.4432C10.516 10.2571 11.2701 11.6832 12.0691 12.2323C12.6732 12.6473 13.1322 12.5563 13.1322 12.5563L15.2693 12.5263C15.2693 12.5263 16.3874 12.4573 15.8574 11.5782Z" fill="#1B1B1B"/>
</g>
<defs>
<clipPath id="clip0">
<rect width="16" height="16" fill="white"/>
</clipPath>
</defs>
</svg>
