<svg width="64" height="65" viewBox="0 0 64 65" fill="none" xmlns="http://www.w3.org/2000/svg">
<path d="M36.0635 32.017L43.1578 24.9232C44.2803 23.8007 44.2803 21.981 43.1578 20.859C42.0364 19.7371 40.2156 19.7371 39.0942 20.859L31.9999 27.954L24.9055 20.859C23.7841 19.7371 21.9633 19.7371 20.8419 20.859C19.7194 21.9816 19.7194 23.8013 20.8419 24.9232L27.9357 32.017L20.8419 39.1108C19.7194 40.2333 19.7194 42.053 20.8419 43.175C21.4023 43.7365 22.1386 44.0164 22.8737 44.0164C23.6082 44.0164 24.3451 43.7365 24.9055 43.175L31.9999 36.0812L39.0942 43.1755C39.6552 43.7371 40.3909 44.017 41.126 44.017C41.8611 44.017 42.5974 43.7371 43.1578 43.1755C44.2803 42.053 44.2803 40.2333 43.1578 39.1114L36.0635 32.017Z" fill="#1B1B1B"/>
</svg>
