<svg width="33" height="33" viewBox="0 0 33 33" fill="none" xmlns="http://www.w3.org/2000/svg">
<g clip-path="url(#clip0)">
<path d="M19.4258 23.1789L15.1283 17.1611H16.7881C17.1342 17.1611 17.4519 16.9707 17.6149 16.6658C17.7779 16.361 17.7595 15.9911 17.5682 15.7036L13.5399 9.66108H14.9131C15.2684 9.66108 15.5925 9.46058 15.7518 9.14289C15.9101 8.82521 15.8763 8.44527 15.663 8.16146L10.9755 0.598957C10.6221 0.12652 9.82921 0.12652 9.47584 0.598957L4.78834 8.16146C4.57503 8.44527 4.54115 8.82521 4.69953 9.14289C4.85884 9.46058 5.1829 9.66108 5.53815 9.66108H6.91146L2.88315 15.7036C2.69178 15.9911 2.67352 16.361 2.83646 16.6658C2.9994 16.9707 3.31709 17.1611 3.66321 17.1611H5.32309L0.963088 23.1789C0.758838 23.4645 0.7314 23.8408 0.892525 24.153C1.05271 24.4652 1.37409 24.6611 1.72565 24.6611H18.6632C19.0147 24.6611 19.3361 24.4652 19.4963 24.153C19.6574 23.8408 19.63 23.4645 19.4258 23.1789Z" fill="#1B1B1B"/>
<path d="M31.8516 30.3489H25.2266V26.5364H21.4766V30.3489H12.1016V26.5364H8.35156V30.3489H1.72656C1.20837 30.3489 0.789062 30.7682 0.789062 31.2864C0.789062 31.8046 1.20837 32.2239 1.72656 32.2239H31.8516C32.3698 32.2239 32.7891 31.8046 32.7891 31.2864C32.7891 30.7682 32.3698 30.3489 31.8516 30.3489Z" fill="#1B1B1B"/>
<path d="M32.6141 23.1783L28.2541 17.1605H29.914C30.26 17.1607 30.5777 16.9702 30.7407 16.6653C30.9036 16.3605 30.8853 15.9906 30.694 15.7031L26.6657 9.66059H28.039C28.3942 9.66059 28.7183 9.46009 28.8776 9.14241C29.036 8.82472 29.0021 8.44478 28.7888 8.16097L24.1013 0.598469C23.7479 0.126031 22.955 0.126031 22.6016 0.598469L17.9141 8.16097C17.7008 8.44478 17.667 8.82472 17.8253 9.14241C17.9846 9.46009 18.3087 9.66059 18.664 9.66059H20.0373L17.9156 12.8431L19.1291 14.663C19.705 15.5282 19.759 16.6342 19.2691 17.5488C19.0576 17.9452 18.7601 18.2757 18.4067 18.5247L20.9528 22.0888C21.4942 22.847 21.596 23.8 21.2875 24.6605H31.8515C32.203 24.6605 32.5244 24.4646 32.6846 24.1524C32.8457 23.8402 32.8183 23.4639 32.6141 23.1783Z" fill="#1B1B1B"/>
</g>
<defs>
<clipPath id="clip0">
<rect width="32" height="32" fill="white" transform="translate(0.789062 0.234375)"/>
</clipPath>
</defs>
</svg>
