<svg width="33" height="33" viewBox="0 0 33 33" fill="none" xmlns="http://www.w3.org/2000/svg">
<g clip-path="url(#clip0)">
<path d="M28.1232 2.11462H24.3732C24.017 2.11462 23.6982 2.30206 23.5482 2.60212L29.0607 7.30837V3.05212C29.0607 2.52706 28.6483 2.11462 28.1232 2.11462Z" fill="#1B1B1B"/>
<path d="M13.1641 22.7344V32.2344H20.6641V22.7344H13.1641Z" fill="#1B1B1B"/>
<path d="M20.6622 11.422H13.0372V19.047H20.6622V11.422Z" fill="#1B1B1B"/>
<path d="M32.1342 12.7275L18.0909 0.689375C17.7484 0.3955 17.3145 0.234375 16.8714 0.234375C16.4283 0.234375 15.9943 0.3955 15.6519 0.69125L1.44351 12.7214C0.666509 13.3873 0.567321 14.5534 1.22076 15.3411C1.88913 16.1468 3.08795 16.2487 3.88282 15.5674L16.8714 4.58313L29.6938 15.5744C30.5806 16.3347 31.9393 16.1076 32.5308 15.1002C32.9903 14.3176 32.8233 13.3182 32.1342 12.7275Z" fill="#1B1B1B"/>
<path d="M16.8524 7.04803L4.4928 17.4938V31.2972C4.4928 31.8222 4.90524 32.2347 5.4303 32.2347H11.2274V21.7972C11.2274 21.279 11.6467 20.8597 12.1649 20.8597H21.5399C22.058 20.8597 22.4774 21.279 22.4774 21.7972V32.2347H28.1024C28.6274 32.2347 29.0399 31.8222 29.0399 31.2972V17.4958L16.8524 7.04803ZM20.6024 18.0472C20.6024 18.5653 20.183 18.9847 19.6649 18.9847H14.0399C13.5217 18.9847 13.1024 18.5653 13.1024 18.0472V12.4222C13.1024 11.904 13.5217 11.4847 14.0399 11.4847H19.6649C20.183 11.4847 20.6024 11.904 20.6024 12.4222V18.0472Z" fill="#1B1B1B"/>
</g>
<defs>
<clipPath id="clip0">
<rect width="32" height="32" fill="white" transform="translate(0.789062 0.234375)"/>
</clipPath>
</defs>
</svg>
