<svg viewBox="0 0 108 238" fill="none" xmlns="http://www.w3.org/2000/svg">
<path d="M0.888191 185.583C-0.124207 212.965 21.4674 236.557 48.8492 237.57C77.2206 238.619 101.522 215.732 102.559 187.69L107.511 53.7505C108.548 25.7089 86.0029 1.09004 57.6314 0.0410505C30.2496 -0.971347 6.97477 20.9624 5.96238 48.3441L0.888191 185.583ZM56.1555 39.959C62.4236 40.1908 67.8246 46.0065 67.5928 52.2746L62.6406 186.214C62.4089 192.482 56.5932 197.883 50.3251 197.652C45.0467 197.456 40.611 192.337 40.8062 187.059L45.8804 49.82C46.0755 44.5416 50.8771 39.7639 56.1555 39.959Z" fill="#1B1B1B"/>
</svg>
