<svg width="160" height="31" viewBox="0 0 160 31" fill="none" xmlns="http://www.w3.org/2000/svg">
<path d="M0 0.427482V30.3513H16.0733V0.427482H11.4993V25.7772H10.3023V0.427482H5.77101V25.7772H4.53131V0.427482H0Z" fill="#1B1B1B"/>
<path d="M23.3329 0.47023V30.3513H28.5481V16.0733L31.9253 30.394H37.2688L33.5497 15.3894L37.226 0.47023H31.8825L28.5481 14.4062V0.47023H23.3329Z" fill="#1B1B1B"/>
<path d="M48.0293 30.3513L48.9698 20.5192H51.8339L52.8171 30.3513H57.9469L54.7835 0.427482H46.0629L42.8568 30.3513H48.0293ZM50.4232 5.04429L51.3209 15.3894H49.4828L50.4232 5.04429Z" fill="#1B1B1B"/>
<path d="M64.7803 30.3513H69.9101V5.55727H72.7742V30.3513H77.904V0.427482H64.7803V30.3513Z" fill="#1B1B1B"/>
<path d="M85.2337 24.281C85.2337 27.8291 88.1405 30.7787 91.6886 30.7787C95.365 30.7787 98.4001 27.7009 98.4001 24.0673V6.71147C98.4001 3.07787 95.365 0 91.6886 0C88.1405 0 85.2337 2.94963 85.2337 6.49773V24.281ZM91.6886 5.17254C92.5009 5.17254 93.2276 5.89926 93.2276 6.71147V24.0673C93.2276 24.8795 92.5009 25.6062 91.6886 25.6062C91.0047 25.6062 90.4062 24.965 90.4062 24.281V6.49773C90.4062 5.81376 91.0047 5.17254 91.6886 5.17254Z" fill="#1B1B1B"/>
<path d="M110.728 18.2108H110.771C112.438 18.2108 113.421 18.2535 113.421 20.6902L113.464 23.0841C113.464 24.623 113.079 25.3497 111.541 25.3497H110.728V18.2108ZM110.728 5.42903H111.327C112.823 5.42903 113.421 5.81376 113.421 7.3527V11.2C113.421 12.2687 112.31 12.6107 111.541 12.6107H110.728V5.42903ZM111.412 30.3513C116.157 30.3513 118.551 27.3161 118.551 22.7421V21.0749C118.551 19.023 118.295 16.9283 116.713 15.4321V15.3894C118.209 13.9359 118.551 12.0123 118.551 10.0031L118.508 7.05346C118.508 3.41986 115.559 0.427482 111.925 0.427482L105.727 0.47023V30.3513H111.412Z" fill="#1B1B1B"/>
<path d="M125.386 0.47023V30.3513H130.601V16.0733L133.978 30.394H139.322L135.603 15.3894L139.279 0.47023H133.936L130.601 14.4062V0.47023H125.386Z" fill="#1B1B1B"/>
<path d="M150.082 30.3513L151.023 20.5192H153.887L154.87 30.3513H160L156.837 0.427482H148.116L144.91 30.3513H150.082ZM152.476 5.04429L153.374 15.3894H151.536L152.476 5.04429Z" fill="#1B1B1B"/>
</svg>
